Coordinates
version=1
nRows=32
nColumns=12
inDegrees=yes

Units are S.I. units (second, meters, Newtons, ...)
Angles are in degrees

endheader
time	SC_y	SC_z	SC_x	AC_y	AC_z	AC_x	GH_y	GH_z	GH_yy	EL_x	PS_y
       0.0              -22.92          32.86          4.835          35.45         -10.76         -5.451          121.7           79.2         -170.1          102.3          47.67
   0.04203              -22.92          32.86          4.846          35.46         -10.75         -5.448          121.6          79.19         -170.1          102.3          47.66
   0.08406              -22.92          32.85          4.858          35.46         -10.75         -5.444          121.6          79.18         -170.0          102.3          47.66
    0.1261              -22.92          32.85          4.871          35.46         -10.75         -5.441          121.6          79.16         -170.0          102.3          47.65
    0.1681              -22.92          32.85          4.884          35.46         -10.75         -5.437          121.6          79.15         -169.9          102.3          47.65
    0.2102              -22.92          32.84          4.899          35.46         -10.75         -5.433          121.5          79.14         -169.9          102.3          47.64
    0.2522              -22.92          32.83          4.914          35.46         -10.75         -5.429          121.5          79.12         -169.8          102.4          47.64
    0.2942              -22.92          32.83           4.93          35.46         -10.75         -5.425          121.5          79.11         -169.8          102.4          47.63
    0.3363              -22.93          32.82          4.947          35.46         -10.74          -5.42          121.4          79.09         -169.7          102.4          47.63
    0.3783              -22.93          32.82          4.966          35.47         -10.74         -5.415          121.4          79.08         -169.6          102.4          47.62
    0.4203              -22.93          32.81          4.986          35.47         -10.74          -5.41          121.4          79.06         -169.6          102.4          47.61
    0.4624              -22.93           32.8          5.008          35.47         -10.74         -5.404          121.3          79.04         -169.5          102.4          47.61
    0.5044              -22.93          32.79          5.031          35.47         -10.74         -5.397          121.3          79.01         -169.4          102.4           47.6
    0.5464              -22.93          32.78          5.056          35.47         -10.73          -5.39          121.2          78.99         -169.3          102.4          47.59
    0.5885              -22.93          32.77          5.084          35.48         -10.73         -5.383          121.2          78.97         -169.2          102.4          47.58
    0.6305              -22.94          32.76          5.113          35.48         -10.73         -5.375          121.1          78.94         -169.1          102.4          47.57
    0.6725              -22.94          32.75          5.145          35.48         -10.73         -5.366          121.0          78.91         -169.0          102.4          47.56
    0.7145              -22.94          32.74           5.18          35.49         -10.72         -5.357          121.0          78.88         -168.8          102.5          47.55
    0.7566              -22.94          32.72          5.219          35.49         -10.72         -5.346          120.9          78.84         -168.7          102.5          47.54
    0.7986              -22.95          32.71           5.26          35.49         -10.72         -5.335          120.8           78.8         -168.6          102.5          47.52
    0.8406              -22.95          32.69          5.306           35.5         -10.71         -5.322          120.7          78.76         -168.4          102.5          47.51
    0.8827              -22.95          32.67          5.357           35.5         -10.71         -5.309          120.6          78.71         -168.2          102.5          47.49
    0.9247              -22.96          32.65          5.413          35.51          -10.7         -5.293          120.5          78.66         -168.0          102.5          47.47
    0.9667              -22.96          32.63          5.475          35.51          -10.7         -5.276          120.4           78.6         -167.8          102.6          47.45
     1.009              -22.97          32.61          5.543          35.52         -10.69         -5.258          120.2          78.54         -167.5          102.6          47.43
     1.051              -22.97          32.58           5.62          35.53         -10.68         -5.237          120.1          78.47         -167.2          102.6           47.4
     1.093              -22.98          32.55          5.706          35.53         -10.67         -5.213          119.9          78.38         -166.9          102.7          47.37
     1.135              -22.98          32.51          5.803          35.54         -10.66         -5.187          119.7          78.29         -166.6          102.7          47.34
     1.177              -22.99          32.47          5.912          35.55         -10.65         -5.157          119.4          78.19         -166.2          102.7           47.3
     1.219               -23.0          32.43          6.036          35.56         -10.64         -5.123          119.2          78.08         -165.7          102.8          47.26
     1.261              -23.01          32.37          6.178          35.58         -10.63         -5.085          118.9          77.94         -165.2          102.8          47.21
     1.303              -23.02          32.32           6.34          35.59         -10.61         -5.041          118.6          77.79         -164.6          102.9          47.15
